<svg width="136" height="34" viewBox="0 0 136 34" fill="none" xmlns="http://www.w3.org/2000/svg">
<path d="M83.677 29.2054H84.9629C85.0839 29.2054 85.1877 29.2692 85.2223 29.3626L86.3409 32.1627C86.3525 32.1922 86.3813 32.2119 86.4217 32.2119C86.462 32.2119 86.4909 32.1922 86.5024 32.1627L87.621 29.3626C87.6614 29.2643 87.7594 29.2054 87.8805 29.2054H89.1202C89.5353 29.2054 89.2932 29.2741 89.2932 29.3527V33.6316C89.2932 33.7151 89.2124 33.779 89.1202 33.779H88.3764C88.2783 33.779 88.2034 33.7102 88.2034 33.6316V30.8756C88.2034 30.8413 88.1745 30.8118 88.1342 30.8069C88.0938 30.802 88.0535 30.8216 88.0419 30.8511L86.9002 33.6562C86.8714 33.7299 86.7965 33.7741 86.7042 33.7741H86.093C86.0007 33.7741 85.9258 33.7299 85.8969 33.6562L84.761 30.8806C84.7495 30.8462 84.7091 30.8265 84.6688 30.8363C84.6284 30.8413 84.5996 30.8707 84.5996 30.9051V33.6365C84.5996 33.72 84.5189 33.7839 84.4266 33.7839H83.6828C83.5848 33.7839 83.5098 33.7151 83.5098 33.6365V29.3577C83.5098 29.2741 83.5905 29.2103 83.6828 29.2103M70.4036 31.8434C70.4209 31.8827 70.4151 31.9269 70.3863 31.9613C70.3574 31.9957 70.3113 32.0154 70.2652 32.0154H69.2619C69.21 32.0154 69.1696 31.9957 69.1408 31.9613C69.112 31.9269 69.1062 31.8827 69.1235 31.8434L69.677 30.517C69.6886 30.4826 69.7289 30.463 69.7693 30.463C69.8097 30.463 69.8443 30.4826 69.8615 30.517L70.4151 31.8434H70.4036ZM58.8138 29.2054H59.6095C59.7133 29.2054 59.794 29.2791 59.794 29.3626V33.6218C59.794 33.7102 59.7075 33.779 59.6095 33.779H58.8138C58.71 33.779 58.6293 33.7053 58.6293 33.6218V29.3626C58.6293 29.2741 58.7158 29.2054 58.8138 29.2054ZM61.0452 29.2054H62.3311C62.4522 29.2054 62.556 29.2692 62.5906 29.3626L63.7092 32.1627C63.7207 32.1922 63.7495 32.2119 63.7899 32.2119C63.8303 32.2119 63.8591 32.1922 63.8706 32.1627L64.9892 29.3626C65.0296 29.2643 65.1276 29.2054 65.2487 29.2054H66.4884C66.9036 29.2054 66.6614 29.2741 66.6614 29.3527V33.6316C66.6614 33.7151 66.5807 33.779 66.4884 33.779H65.7446C65.6466 33.779 65.5716 33.7102 65.5716 33.6316V30.8756C65.5716 30.8413 65.5428 30.8118 65.5024 30.8069C65.462 30.802 65.4217 30.8216 65.4102 30.8511L64.2685 33.6562C64.2396 33.7299 64.1647 33.7741 64.0724 33.7741H63.4612C63.369 33.7741 63.294 33.7299 63.2652 33.6562L62.1293 30.8806C62.1177 30.8462 62.0774 30.8265 62.037 30.8363C61.9967 30.8413 61.9678 30.8707 61.9678 30.9051V33.6365C61.9678 33.72 61.8871 33.7839 61.7948 33.7839H61.051C60.953 33.7839 60.878 33.7151 60.878 33.6365V29.3577C60.878 29.2741 60.9588 29.2103 61.051 29.2103L61.0452 29.2054ZM78.7932 29.2054H82.4661C82.5526 29.2054 82.6218 29.2643 82.6218 29.338V29.903C82.6218 29.9766 82.5526 30.0356 82.4661 30.0356H79.9406C79.8484 30.0356 79.7734 30.0995 79.7734 30.1781V30.8953C79.7734 30.9739 79.8484 31.0378 79.9406 31.0378H82.2413C82.322 31.0378 82.3854 31.0918 82.3854 31.1606V31.6862C82.3854 31.755 82.322 31.809 82.2413 31.809H79.9406C79.8484 31.809 79.7734 31.8729 79.7734 31.9515V32.8063C79.7734 32.8849 79.8484 32.9488 79.9406 32.9488H82.5238C82.6103 32.9488 82.6795 33.0077 82.6795 33.0814V33.6562C82.6795 33.7299 82.6103 33.7888 82.5238 33.7888H78.7932C78.6894 33.7888 78.6087 33.7151 78.6087 33.6316V29.3724C78.6087 29.284 78.6951 29.2152 78.7932 29.2152V29.2054ZM75.1836 29.0776C75.8525 29.0776 76.3945 29.2299 76.8096 29.5099C77.1556 29.7457 77.3805 30.0651 77.5189 30.4679C77.5362 30.5219 77.5304 30.576 77.49 30.6251C77.4497 30.6693 77.392 30.6988 77.3228 30.6988H76.6309C76.5156 30.6988 76.4176 30.6448 76.3772 30.5514C76.1696 30.124 75.8352 29.9275 75.2125 29.9275C74.5897 29.9275 73.8344 30.4875 73.8228 31.4946C73.8171 32.5017 74.4456 33.0519 75.2067 33.0519C76.037 33.0519 76.4118 32.7866 76.5502 32.207C76.5617 32.1677 76.5502 32.1284 76.5156 32.094C76.4867 32.0596 76.4406 32.0448 76.3945 32.0448H75.5353C75.4489 32.0448 75.3797 31.9859 75.3797 31.9122V31.4308C75.3797 31.3571 75.4489 31.2981 75.5353 31.2981H77.4785C77.565 31.2981 77.6342 31.3571 77.6342 31.4308V33.6414C77.6342 33.7151 77.565 33.779 77.4785 33.7741L77.0345 33.7642C76.948 33.7642 76.8846 33.7004 76.8615 33.6316L76.8212 33.499C76.8039 33.4498 76.7693 33.3958 76.7232 33.3811C76.677 33.3663 76.6309 33.3811 76.5848 33.4204C76.2215 33.7151 75.8525 33.8723 75.1779 33.8723C73.7709 33.8723 72.6293 32.88 72.6293 31.475C72.6293 30.07 73.7709 29.0776 75.1779 29.0776H75.1836ZM69.1062 29.3577L67.238 33.6169C67.2207 33.6562 67.2265 33.6906 67.2553 33.7249C67.2841 33.7593 67.3245 33.7741 67.3706 33.7741H68.1663C68.2528 33.7741 68.3335 33.7299 68.3624 33.6562L68.6737 32.9095C68.7141 32.8112 68.8237 32.7473 68.9447 32.7473H70.5823C70.7092 32.7473 70.813 32.8112 70.8533 32.9095L71.1647 33.6562C71.1935 33.7299 71.2685 33.7741 71.3607 33.7741H72.2083C72.2545 33.7741 72.2948 33.7544 72.3237 33.7249C72.3525 33.6906 72.3583 33.6562 72.341 33.6169L70.4727 29.3577C70.4324 29.2643 70.3344 29.2054 70.2133 29.2054H69.3714C69.2561 29.2054 69.1523 29.2643 69.112 29.3577H69.1062Z" fill="white"/>
<path d="M135.9 32.6539L120.787 0.87441C120.591 0.294725 120.159 0.00488281 119.496 0.00488281H111.833C111.441 0.00488281 111.135 0.103135 110.922 0.30455C110.708 0.501054 110.581 0.736858 110.547 1.01196V20.4314L101.333 0.87441C101.137 0.294725 100.704 0.00488281 100.041 0.00488281H92.378C91.9859 0.00488281 91.6803 0.103135 91.467 0.30455C91.2536 0.501054 91.1268 0.736858 91.0922 1.01196V32.9929C91.0922 33.6659 91.4785 34 92.2511 34H96.3508C97.1926 34 97.6309 33.6659 97.6655 32.9929V9.13738L109.238 33.1304C109.544 33.8231 110.005 34 110.518 34H115.805C116.647 34 117.086 33.6659 117.12 32.9929V9.13738L128.698 33.1059C129.021 33.7494 129.471 33.9901 130.048 33.9901H134.88C135.687 33.9901 136.235 33.2827 135.9 32.6539Z" fill="white"/>
<path d="M2.13921 1.00708C2.13921 0.7025 2.24876 0.461783 2.47364 0.275105C2.69851 0.0933391 3.00412 0 3.40197 0H26.0914C26.4316 0 26.7257 0.0835139 26.9678 0.250542C27.21 0.41757 27.3311 0.668112 27.3311 1.00708V5.62982C27.3311 5.75264 27.3311 6.15056 27.1697 6.38636L7.21334 28.8516H26.1145C26.4547 28.8516 26.743 28.9351 26.9736 29.1021C27.2043 29.2692 27.3253 29.5295 27.3253 29.8783V32.8701C27.3253 33.1305 27.2158 33.381 26.9909 33.6266C26.766 33.8723 26.4777 33.9951 26.1145 33.9951H1.26277C0.905271 33.9951 0.605436 33.8968 0.363262 33.6954C0.121087 33.4989 0 33.2238 0 32.8701V27.9428C0 27.6972 0.0634266 27.5006 0.184514 27.3484L19.8179 5.0747H3.40197C3.00988 5.0747 2.69851 4.98627 2.47364 4.81433C2.24876 4.63748 2.13921 4.35255 2.13921 3.95954V1.00708Z" fill="white"/>
<path d="M56.3863 28.7975C58.9349 26.2233 60.5724 23.4575 61.9563 20.3037C62.2446 19.6503 63.2421 16.9975 63.2421 16.9975C64.5856 13.4506 66.0444 9.94794 68.0049 6.63194C69.6251 3.88581 73.0732 0.559987 78.3492 0.216106C78.3492 0.216106 69.1062 -1.46891 62.4925 5.19747C59.9439 7.77166 58.3121 10.5374 56.9225 13.6913C56.6342 14.3447 55.6367 16.9926 55.6367 16.9975C54.2932 20.5444 52.8344 24.0471 50.8739 27.3631C49.2537 30.1092 45.6499 33.4448 40.3739 33.7887C40.3739 33.7887 49.7726 35.4639 56.3863 28.7926" fill="white"/>
<path d="M57.3146 10.0463C55.579 8.56762 52.0906 6.82856 52.0906 6.82856C48.6771 5.05021 44.5197 4.26419 40.2067 4.88809C31.696 6.12606 25.5148 12.7089 25.9588 20.0532C26.1491 23.2268 27.4983 26.0908 29.6202 28.3801C29.3896 27.6235 29.2166 26.8424 29.1128 26.0417C27.9192 16.9485 35.6112 8.75429 46.2841 7.73739C47.766 7.59492 49.2306 7.60475 50.649 7.7423C54.2009 8.06653 57.1301 10.3018 57.1301 10.3018L57.3204 10.0414L57.3146 10.0463Z" fill="white"/>
<path d="M29.9662 19.0312C29.1186 21.2223 28.7899 23.6 29.1128 26.0464C29.2166 26.8472 29.3896 27.6234 29.6203 28.3799C32.2611 31.2292 36.0955 33.1991 40.4085 33.7887C44.5428 33.5086 47.6449 31.3913 49.565 29.1659C49.1556 29.2298 48.7405 29.2887 48.3196 29.328C39.953 30.1239 32.3188 25.6583 29.9662 19.0312Z" fill="#ED0874"/>
<path d="M87.5921 5.58569C87.6959 6.20959 87.7536 6.84331 87.7536 7.49178C87.7536 14.841 80.7594 20.8 72.1333 20.8C63.5073 20.8 68.518 20.5249 66.8689 20.0238C65.4908 19.5374 64.378 18.8939 63.7437 18.4861C63.7034 18.604 63.663 18.7318 63.6169 18.8546C65.1622 19.9894 67.3591 21.1389 68.0048 21.473C70.1902 22.765 72.8368 23.5363 75.6968 23.5608C83.2388 23.6345 89.5584 18.3977 89.6679 11.9721C89.7083 9.62384 88.9414 7.43774 87.5921 5.59061" fill="white"/>
<path d="M86.3409 13.0231C87.2462 11.3381 87.7536 9.46643 87.7536 7.49157C87.7536 5.51671 87.696 6.20939 87.5922 5.5904C85.5683 2.82462 82.2413 0.820283 78.3319 0.220947C74.9876 0.442014 72.3813 1.86666 70.5074 3.57624C71.2396 3.47308 71.9892 3.41904 72.7561 3.41904C79.5197 3.41904 85.1416 7.56035 86.3294 13.033" fill="#FFD200"/>
</svg>
