<?xml version="1.0" encoding="UTF-8"?>
<svg id="Camada_1" data-name="Camada 1" xmlns="http://www.w3.org/2000/svg" version="1.1" viewBox="0 0 1080 1080">
  <defs>
    <style>
      .cls-1 {
        fill: #2d2d2d;
      }

      .cls-1, .cls-2, .cls-3, .cls-4, .cls-5 {
        stroke-width: 0px;
      }

      .cls-2 {
        fill: #000;
      }

      .cls-3 {
        fill: #3c3c3c;
      }

      .cls-4 {
        fill: #cf6;
      }

      .cls-5 {
        fill: #fff;
      }
    </style>
  </defs>
  <circle class="cls-4" cx="500.3" cy="540" r="460.56"/>
  <g>
    <g>
      <rect class="cls-2" x="557.1" y="161.84" width="17.25" height="17.25"/>
      <rect class="cls-2" x="557.1" y="144.59" width="17.25" height="17.25"/>
      <rect class="cls-2" x="557.1" y="179.09" width="17.25" height="17.25"/>
      <rect class="cls-2" x="557.1" y="213.59" width="17.25" height="17.25"/>
      <rect class="cls-2" x="557.1" y="230.84" width="17.25" height="17.25"/>
      <rect class="cls-2" x="557.1" y="248.09" width="17.25" height="17.25"/>
      <rect class="cls-2" x="591.6" y="196.34" width="17.25" height="17.25"/>
      <rect class="cls-2" x="574.35" y="196.34" width="17.25" height="17.25"/>
      <rect class="cls-2" x="539.85" y="196.34" width="17.25" height="17.25"/>
      <rect class="cls-2" x="522.6" y="196.34" width="17.25" height="17.25"/>
    </g>
    <g>
      <rect class="cls-2" x="650.62" y="237.71" width="17.25" height="17.25"/>
      <rect class="cls-2" x="650.62" y="254.96" width="17.25" height="17.25"/>
      <rect class="cls-2" x="650.62" y="289.46" width="17.25" height="17.25"/>
      <rect class="cls-2" x="650.62" y="306.71" width="17.25" height="17.25"/>
      <rect class="cls-2" x="667.88" y="272.21" width="17.25" height="17.25"/>
      <rect class="cls-2" x="633.38" y="272.21" width="17.25" height="17.25"/>
    </g>
    <g>
      <rect class="cls-2" x="228.8" y="298.13" width="17.25" height="17.25"/>
      <rect class="cls-2" x="228.8" y="315.38" width="17.25" height="17.25"/>
      <rect class="cls-2" x="228.8" y="349.88" width="17.25" height="17.25"/>
      <rect class="cls-2" x="228.8" y="367.13" width="17.25" height="17.25"/>
      <rect class="cls-2" x="246.05" y="332.63" width="17.25" height="17.25"/>
      <rect class="cls-2" x="211.55" y="332.63" width="17.25" height="17.25"/>
    </g>
  </g>
  <g id="Victory_Hand_Emoji_3D_pixel_icon" data-name="Victory Hand Emoji 3D pixel icon">
    <path class="cls-5" d="M563.95,654.82l-17.84,3.24.73,19.85-71.24,12.91-.72-19.83c23.75-4.31,47.49-8.62,71.23-12.93l-.73-19.85,17.83-3.23-4.41-118.98-35.62,6.54-.73-19.8-17.79,3.27.72,19.8-17.78,3.27.72,19.79-17.78,3.26-1.43-39.14-106.44,19.57.7,19.76-17.71,3.25.7,19.76-17.71,3.25,2.11,59.29,17.71-3.23,1.41,39.57,35.46-6.45.72,19.8c11.84-2.15,23.67-4.3,35.5-6.45l.72,19.82-35.53,6.44-.71-19.81-17.72,3.22,2.81,78.82,195.77-35.3-2.95-79.45v-.03h0ZM400.24,584.9l.71,19.79-17.74,3.23-.71-19.78,17.73-3.24-.71-19.78c23.67-4.34,47.35-8.68,71.02-13.01l.72,19.8-71.03,13h0Z"/>
    <path class="cls-5" d="M471.27,571.91l-71.03,13,.71,19.79-17.74,3.23-.71-19.78,17.73-3.24-.71-19.78c23.67-4.34,47.35-8.68,71.02-13.01l.72,19.8h0Z"/>
    <path class="cls-5" d="M474.88,670.99c23.75-4.31,47.49-8.62,71.23-12.93l.73,19.85-71.24,12.91-.72-19.83h0Z"/>
    <path class="cls-5" d="M466.24,433.88l-17.76,3.28,2.16,59.29-88.67,16.32-1.41-39.49-17.7,3.27h0l-2.11-59.18c-5.89,1.09-11.78,2.18-17.67,3.28l-2.1-59.1,35.36-6.59,2.11,59.13,17.69-3.28,1.42,39.46,17.71-3.28.72,19.75,17.73-3.28-.72-19.76-.8-22.36.81,22.37,17.74-3.28-2.15-59.23,17.74-3.29-2.15-59.19,35.48-6.63,2.16,59.22-17.75,3.3,2.16,59.27h0Z"/>
    <polygon class="cls-5" points="558.06 496.18 522.45 502.73 519.55 424.02 555.13 417.44 558.06 496.18"/>
    <path class="cls-5" d="M504.66,506c-11.85,2.18-23.71,4.36-35.55,6.54l-2.87-78.65,35.53-6.58,2.89,78.69h0Z"/>
    <path class="cls-1" d="M626.48,767.8c-66.16,11.88-132.31,23.77-198.47,35.66-10.88,1.95-21.75,3.91-32.63,5.86l-41.28-16.73c66.2-11.92,132.41-23.84,198.61-35.76,10.93-1.97,21.85-3.93,32.78-5.9l40.99,16.86h0Z"/>
    <path class="cls-3" d="M616.37,498.59l10.11,269.21-40.99-16.86c-3.34-89.72-6.68-179.44-10.02-269.16-.84-22.55-1.68-45.09-2.52-67.64l40.91,17.45,2.52,67h0Z"/>
    <path class="cls-2" d="M585.49,750.94c-66.25,11.92-132.48,23.85-198.72,35.77-10.89,1.96-21.78,3.92-32.67,5.89-1.28-35.94-2.55-71.85-3.84-107.78h0c-.12-3.55-.26-7.1-.38-10.63l35.46-6.45.72,19.8h-.02l-17.72,3.22,2.81,78.82,195.77-35.3-2.95-79.45-17.84,3.24-.73-19.85,17.83-3.23-4.41-118.98-35.62,6.54-.73-19.8,35.61-6.55-2.92-78.74,17.81-3.3,2.49,67.12,10.05,269.68v-.02h0Z"/>
    <path class="cls-2" d="M519.55,424.02l2.9,78.71-17.79,3.27-2.89-78.69-35.53,6.58-2.16-59.27,17.75-3.3,1.45,39.52,17.77-3.29.71,19.34,17.78-3.29-.3-8.31-.41-11.03,4.56-.85c10.34-1.91,20.69-3.83,31.02-5.75l.73,19.78-35.58,6.59h-.01Z"/>
    <path class="cls-2" d="M487.6,529.06l.72,19.79-17.78,3.26-1.43-39.14-106.44,19.57-.32-8.94-.39-10.82,88.67-16.32-2.16-59.29,17.76-3.28,2.87,78.65c11.84-2.17,23.7-4.35,35.55-6.54l.72,19.8-17.78,3.27h.01Z"/>
    <path class="cls-2" d="M471.27,571.91l-71.03,13h0l-.71-19.78c23.67-4.34,47.35-8.68,71.02-13.01l.72,19.8h0Z"/>
    <path class="cls-2" d="M546.85,677.91l-71.24,12.91-.72-19.83c23.75-4.31,47.49-8.62,71.23-12.93l.73,19.85h0Z"/>
    <path class="cls-2" d="M430.74,440.44l-17.74,3.28-.81-22.37-.22-6.16-1.11-30.69,4.82-.9c4.3-.8,8.6-1.6,12.91-2.4l2.15,59.23h0Z"/>
    <path class="cls-2" d="M342.86,476.56l-17.69,3.27-2.07-58.48-.02-.69h0c5.89-1.09,11.78-2.19,17.67-3.28l2.11,59.18h0Z"/>
    <polygon class="cls-2" points="376.15 410.82 376.14 410.82 358.45 414.1 356.34 354.97 374.03 351.67 376.15 410.82"/>
    <path class="cls-2" d="M330.77,637.84l-17.71,3.23-2.09-59.28c5.89-1.08,11.8-2.16,17.69-3.24l2.11,59.29Z"/>
    <path class="cls-2" d="M323.08,420.66h0l-17.66,3.28-2.09-59.09c5.89-1.1,11.78-2.2,17.66-3.29l2.1,59.1h-.01Z"/>
    <polygon class="cls-3" points="538.39 326.4 540.58 385.53 499.59 368.02 497.42 308.79 538.39 326.4 538.39 326.4"/>
    <polygon class="cls-2" points="499.59 368.02 481.83 371.32 479.66 312.1 497.42 308.78 499.59 368.02"/>
    <path class="cls-2" d="M446.33,377.92l-17.74,3.29-2.14-59.18c5.91-1.1,11.82-2.21,17.73-3.31l2.15,59.19h0Z"/>
    <path class="cls-2" d="M422.28,700.91l-35.53,6.44-.71-19.81h.02c11.84-2.15,23.67-4.3,35.5-6.45l.72,19.82Z"/>
    <polygon class="cls-2" points="395.27 447 395.27 447 377.55 450.28 376.14 410.82 376.15 410.82 393.85 407.53 395.27 447"/>
    <polygon class="cls-2" points="361.97 512.78 344.26 516.04 342.86 476.56 360.56 473.3 361.97 512.78"/>
    <polygon class="cls-2" points="349.89 674.18 332.17 677.4 331.15 648.51 330.77 637.84 348.48 634.61 349.89 674.18"/>
    <path class="cls-2" d="M356.34,354.97l-35.36,6.59-.69-19.7c11.78-2.2,23.57-4.4,35.35-6.6l.71,19.71h0Z"/>
    <path class="cls-2" d="M479.66,312.1l-35.48,6.63-.72-19.71c11.82-2.21,23.65-4.43,35.47-6.64l.72,19.73h.01Z"/>
    <polygon class="cls-2" points="413.71 463.48 395.98 466.75 395.27 447 395.27 447 413 443.72 413.71 463.48"/>
    <path class="cls-2" d="M363.38,552.29l-17.71,3.25-.71-19.76c5.9-1.08,11.81-2.17,17.71-3.25l.7,19.76h0Z"/>
    <polygon class="cls-2" points="400.94 604.69 383.21 607.93 382.5 588.15 400.23 584.9 400.24 584.9 400.94 604.69"/>
    <path class="cls-2" d="M346.37,575.3l-17.71,3.25-.7-19.76c5.9-1.09,11.8-2.16,17.71-3.25l.7,19.76Z"/>
    <polygon class="cls-3" points="595.33 415.13 595.66 423.83 572.94 414.14 555.14 417.43 554.4 397.65 595.33 415.13"/>
    <polygon class="cls-3" points="483.27 410.83 501.04 407.54 519.23 415.28 518.82 404.25 523.38 403.4 522.84 388.82 481.83 371.32 483.27 410.83"/>
    <polygon class="cls-3" points="501.04 407.54 501.75 426.88 519.53 423.59 519.23 415.28 501.04 407.54"/>
    <polygon class="cls-1" points="481.83 371.32 499.59 368.02 540.58 385.53 522.84 388.82 481.83 371.32"/>
    <polygon class="cls-3" points="478.94 292.37 519.93 310.01 520.25 318.6 497.42 308.79 479.66 312.1 478.94 292.37"/>
    <polygon class="cls-3" points="355.63 335.27 396.79 352.79 397.1 361.49 374.03 351.67 356.34 354.97 355.63 335.27"/>
    <polygon class="cls-3" points="374.03 351.67 376.14 410.82 393.85 407.53 411.97 415.2 410.86 384.51 415.69 383.61 415.17 369.17 374.03 351.67"/>
    <polygon class="cls-3" points="413 443.72 395.27 447 395.27 447 393.85 407.53 411.97 415.2 412.2 421.36 413 443.72"/>
    <polygon class="cls-1" points="305.4 423.95 323.07 420.67 323.33 431.49 305.4 423.95"/>
    <polygon class="cls-1" points="343.24 487.4 325.17 479.83 342.86 476.56 342.86 476.56 343.24 487.4"/>
    <polygon class="cls-1" points="344.26 516.04 361.97 512.78 362.36 523.6 344.26 516.04"/>
    <polygon class="cls-1" points="332.17 677.4 349.89 674.18 350.35 684.85 332.17 677.4"/>
    <polygon class="cls-1" points="313.07 641.07 330.77 637.84 331.15 648.51 313.07 641.07"/>
  </g>
  <g>
    <path class="cls-2" d="M687.7,624.97h-17.89v-15.21h52.77v15.21h-17.89v47.41h-16.99v-47.41Z"/>
    <path class="cls-2" d="M727.94,609.76h28.62c5.19,0,9.53.46,13.01,1.39,3.49.93,6.29,2.28,8.41,4.07s3.62,4.02,4.52,6.71,1.34,5.79,1.34,9.3c0,2.74-.22,5.34-.67,7.78s-1.26,4.6-2.42,6.48-2.75,3.37-4.74,4.47c-2,1.11-4.51,1.66-7.55,1.66h-.54l15.92,20.75h-20.57l-14.58-19.68h-3.76v19.68h-17v-62.61h0ZM755.94,637.49c2.33,0,4.19-.13,5.59-.4s2.46-.67,3.18-1.21c.72-.54,1.18-1.19,1.39-1.97.21-.77.31-1.67.31-2.68s-.1-1.91-.31-2.68-.67-1.43-1.39-1.97c-.72-.54-1.77-.94-3.18-1.21-1.4-.27-3.26-.4-5.59-.4h-11v12.52h11Z"/>
    <path class="cls-2" d="M818.91,658.06c3.76,0,6.66-.85,8.72-2.55s3.08-4.34,3.08-7.91v-37.84h17v34.88c0,5.61-.6,10.27-1.79,14s-2.98,6.71-5.37,8.94c-2.38,2.23-5.38,3.82-8.99,4.74s-7.83,1.38-12.66,1.38-9.05-.46-12.66-1.38c-3.6-.93-6.6-2.51-8.99-4.74-2.39-2.24-4.17-5.22-5.37-8.94-1.19-3.73-1.79-8.39-1.79-14v-34.88h16.99v37.84c0,3.58,1.03,6.22,3.09,7.91,2.06,1.7,4.96,2.55,8.72,2.55h.02,0Z"/>
    <path class="cls-2" d="M855.76,609.76h17v47.41h33.99v15.21h-50.98v-62.61h-.01Z"/>
    <path class="cls-2" d="M919.45,644.02l-22.36-34.26h20.12l10.73,16.46,10.73-16.46h20.12l-22.36,34.26v28.35h-17v-28.35h.02Z"/>
    <path class="cls-2" d="M673.39,684.57h24.6c10.91,0,19,2.62,24.28,7.87,5.27,5.25,7.91,13.06,7.91,23.43s-2.64,18.19-7.91,23.44c-5.28,5.25-13.37,7.87-24.28,7.87h-24.6v-62.61ZM697.99,731.97c5.07,0,8.79-1.34,11.18-4.02s3.58-6.74,3.58-12.17-1.19-9.3-3.58-11.99-6.11-4.02-11.18-4.02h-7.6v32.2h7.6Z"/>
    <path class="cls-2" d="M735.55,715.87c0-10.79,2.64-18.93,7.91-24.42,5.28-5.49,13.37-8.23,24.28-8.23s19.01,2.74,24.28,8.23c5.28,5.48,7.92,13.62,7.92,24.42s-2.64,18.94-7.92,24.42c-5.27,5.48-13.37,8.23-24.28,8.23s-19-2.74-24.28-8.23c-5.27-5.48-7.91-13.63-7.91-24.42ZM752.99,715.87c0,5.67,1.19,9.92,3.58,12.75,2.38,2.83,6.11,4.25,11.18,4.25s8.8-1.42,11.18-4.25,3.58-7.08,3.58-12.75-1.2-9.91-3.58-12.75c-2.39-2.83-6.11-4.25-11.18-4.25-5.43,0-9.24,1.42-11.45,4.25s-3.31,7.08-3.31,12.75Z"/>
    <path class="cls-2" d="M824.1,713.37v33.81h-17v-62.61h17l23.25,33.9v-33.9h17v62.61h-17l-23.25-33.81Z"/>
    <path class="cls-2" d="M873.29,684.57h51.88v15.21h-34.88v8.49h31.3v15.21h-31.3v8.5h35.78v15.21h-52.78v-62.61h0Z"/>
    <path class="cls-2" d="M930.54,740.47c0-2.68.63-4.7,1.88-6.04s3.31-2.01,6.17-2.01,4.92.67,6.17,2.01,1.88,3.36,1.88,6.04-.63,4.7-1.88,6.03c-1.25,1.34-3.31,2.01-6.17,2.01s-4.92-.67-6.17-2.01-1.88-3.35-1.88-6.03Z"/>
  </g>
  <g>
    <path class="cls-2" d="M750.54,524.25h-6.89c-.41,0-.73.33-.73.73v30.04c0,.41.33.73.73.73h6.89c.41,0,.73-.33.73-.73v-30.04c0-.41-.33-.73-.73-.73ZM725.58,499.17h-7.14c-.34,0-.61.27-.61.61v55.04c0,.41.33.73.73.73h7.63v-55.77c0-.34-.27-.61-.61-.61ZM733.82,555.55h-7.63v7.63c0,.41.33.73.73.73h6.89c.41,0,.73-.33.73-.73v-6.89c0-.41-.33-.73-.73-.73h.01ZM750.54,507.53h-6.89c-.41,0-.73.33-.73.73v6.89c0,.41.33.73.73.73h6.89c.41,0,.73-.33.73-.73v-6.89c0-.41-.33-.73-.73-.73ZM700.36,516.44c-.35-.35-.83-.55-1.33-.55h-20.12c-.41,0-.73.33-.73.73v7.63h22.95v22.95h7.63c.41,0,.73-.33.73-.73v-20.12c0-.5-.2-.98-.55-1.33l-8.57-8.57h-.01ZM678.17,524.25h-7.63c-.41,0-.73.33-.73.73v54.93c0,.41.33.73.73.73h6.89c.41,0,.73-.33.73-.73v-23.63c0-.41.33-.73.73-.73h21.48c.41,0,.73-.33.73-.73v-7.63h-22.95v-22.95h.02ZM790.2,516.44c-.35-.35-.83-.55-1.33-.55h-20.15c-.41,0-.73.33-.73.73v7.63h22.98l-.04,30.78c0,.41.33.73.73.73h6.89c.41,0,.73-.33.73-.73v-28.72c0-.5-.2-.98-.55-1.33l-8.54-8.54h.01ZM759.63,524.99v30.04c0,.41.33.73.73.73h6.89c.41,0,.73-.33.73-.73v-30.78h-7.63c-.41,0-.73.33-.73.73h.01Z"/>
    <path class="cls-2" d="M912.06,524.13h-7.63c-.41,0-.73.33-.73.73v54.93c0,.41.33.73.73.73h6.89c.41,0,.73-.33.73-.73v-24.36h22.21c.41,0,.73-.33.73-.73v-7.63h-22.95v-22.95h.02Z"/>
    <path class="cls-2" d="M942.81,524.89l-8.57-8.57c-.35-.35-.83-.55-1.33-.55h-20.12c-.41,0-.73.33-.73.73v7.63h22.95v22.95h7.63c.41,0,.73-.33.73-.73v-20.12c0-.5-.2-.98-.55-1.33h-.01Z"/>
    <path class="cls-2" d="M886.23,516.32c-.35-.35-.83-.55-1.33-.55h-20.12c-.41,0-.73.33-.73.73v7.63h22.95v22.95h7.63c.41,0,.73-.33.73-.73v-20.12c0-.5-.2-.98-.55-1.33l-8.57-8.57h-.01Z"/>
    <path class="cls-2" d="M864.04,524.13h-7.63c-.41,0-.73.33-.73.73v54.93c0,.41.33.73.73.73h6.89c.41,0,.73-.33.73-.73v-24.36h22.21c.41,0,.73-.33.73-.73v-7.63h-22.95v-22.95h.02Z"/>
    <path class="cls-2" d="M847.01,525.35l-9.24-9.24c-.14-.14-.32-.22-.52-.22h-19.71c-.19,0-.38.08-.52.22l-9.24,9.24c-.14.14-.21.32-.21.52v19.76c0,.19.08.38.21.52l9.19,9.19c.14.14.32.21.52.21h29.01c.41,0,.73-.33.73-.73v-28.95c0-.19-.08-.38-.22-.52h0ZM838.87,547.19h-22.95v-22.95h22.95v22.95Z"/>
    <g>
      <path class="cls-2" d="M958.95,532.49v-8.36h24.44c.41,0,.73-.33.73-.73v-6.89c0-.41-.33-.73-.73-.73h-22.34c-.5,0-.98.2-1.33.55l-8.57,8.57c-.35.35-.55.83-.55,1.33v5.53c0,.41.33.73.73.73h7.63,0Z"/>
      <path class="cls-2" d="M958.95,532.49v7.63c0,.41.33.73.73.73h16.08v8.45h-22.21c-.41,0-.73.33-.73.73v6.89c0,.41.33.73.73.73h20.12c.5,0,.98-.2,1.33-.55l8.57-8.57c.35-.35.55-.83.55-1.33v-13.93c0-.43-.35-.78-.78-.78h-24.39,0Z"/>
    </g>
  </g>
</svg>