<svg width="64" height="34" viewBox="0 0 64 34" fill="none" xmlns="http://www.w3.org/2000/svg">
<path d="M30.45 28.7714C32.9986 26.1972 34.6361 23.4314 36.02 20.2775C36.3083 19.6242 37.3058 16.9714 37.3058 16.9714C38.6493 13.4245 40.1081 9.92181 42.0686 6.60582C43.6888 3.85968 47.1369 0.533864 52.4129 0.189983C52.4129 0.189983 43.1699 -1.49503 36.5562 5.17135C34.0076 7.74554 32.3758 10.5113 30.9862 13.6652C30.6979 14.3186 29.7004 16.9665 29.7004 16.9714C28.3569 20.5183 26.8981 24.0209 24.9376 27.3369C23.3173 30.0831 19.7136 33.4187 14.4376 33.7626C14.4376 33.7626 23.8363 35.4378 30.45 28.7665" fill="white"/>
<path d="M31.3783 10.0202C29.6427 8.54149 26.1542 6.80244 26.1542 6.80244C22.7407 5.02408 18.5834 4.23807 14.2704 4.86197C5.7597 6.09994 -0.421507 12.6828 0.0224795 20.0271C0.212759 23.2006 1.56202 26.0647 3.68393 28.3539C3.45328 27.5974 3.2803 26.8163 3.17651 26.0156C1.98294 16.9224 9.67486 8.72817 20.3478 7.71127C21.8297 7.5688 23.2943 7.57863 24.7127 7.71618C28.2646 8.04041 31.1938 10.2756 31.1938 10.2756L31.3841 10.0153L31.3783 10.0202Z" fill="white"/>
<path d="M4.0299 19.0051C3.18229 21.1961 2.85363 23.5738 3.17653 26.0203C3.28032 26.821 3.4533 27.5972 3.68394 28.3538C6.32479 31.2031 10.1592 33.173 14.4722 33.7625C18.6065 33.4825 21.7086 31.3652 23.6287 29.1398C23.2193 29.2037 22.8042 29.2626 22.3833 29.3019C14.0167 30.0977 6.38246 25.6322 4.0299 19.0051Z" fill="#ED0874"/>
<path d="M61.6558 5.55957C61.7596 6.18347 61.8173 6.81719 61.8173 7.46565C61.8173 14.8149 54.8231 20.7738 46.197 20.7738C37.571 20.7738 42.5817 20.4987 40.9326 19.9977C39.5545 19.5113 38.4417 18.8678 37.8074 18.46C37.7671 18.5779 37.7267 18.7056 37.6806 18.8285C39.2259 19.9633 41.4227 21.1128 42.0685 21.4469C44.2539 22.7389 46.9005 23.5102 49.7605 23.5347C57.3025 23.6084 63.6221 18.3716 63.7316 11.9459C63.772 9.59772 63.0051 7.41161 61.6558 5.56448" fill="white"/>
<path d="M60.4046 12.997C61.3099 11.312 61.8173 9.44031 61.8173 7.46545C61.8173 5.49059 61.7597 6.18327 61.6559 5.56428C59.632 2.79849 56.305 0.79416 52.3956 0.194824C49.0513 0.415891 46.445 1.84054 44.571 3.55012C45.3033 3.44696 46.0529 3.39292 46.8198 3.39292C53.5834 3.39292 59.2053 7.53423 60.3931 13.0068" fill="#FFD200"/>
</svg>
